<svg width="19" height="15" viewBox="0 0 19 15" fill="none" xmlns="http://www.w3.org/2000/svg">
<path fill-rule="evenodd" clip-rule="evenodd" d="M3 7.5C3 8.32843 2.32843 9 1.5 9C0.671573 9 0 8.32843 0 7.5C0 6.67157 0.671573 6 1.5 6C2.32843 6 3 6.67157 3 7.5ZM1.5 0C0.671573 0 0 0.671573 0 1.5C0 2.32843 0.671573 3 1.5 3C2.32843 3 3 2.32843 3 1.5C3 0.671573 2.32843 0 1.5 0ZM1.5 12C0.671573 12 0 12.6716 0 13.5C0 14.3284 0.671573 15 1.5 15C2.32843 15 3 14.3284 3 13.5C3 12.6716 2.32843 12 1.5 12ZM18 6H6C5.58579 6 5.25 6.33579 5.25 6.75V8.25C5.25 8.66421 5.58579 9 6 9H18C18.4142 9 18.75 8.66421 18.75 8.25V6.75C18.75 6.33579 18.4142 6 18 6ZM18 0H6C5.58579 0 5.25 0.335786 5.25 0.75V2.25C5.25 2.66421 5.58579 3 6 3H18C18.4142 3 18.75 2.66421 18.75 2.25V0.75C18.75 0.335786 18.4142 0 18 0ZM18 12H6C5.58579 12 5.25 12.3358 5.25 12.75V14.25C5.25 14.6642 5.58579 15 6 15H18C18.4142 15 18.75 14.6642 18.75 14.25V12.75C18.75 12.3358 18.4142 12 18 12Z" fill="white"/>
</svg>
